<?xml version="1.0" encoding="utf-8"?>
<!-- Generator: Adobe Illustrator 27.0.0, SVG Export Plug-In . SVG Version: 6.00 Build 0)  -->
<svg version="1.1" id="Layer_1" xmlns="http://www.w3.org/2000/svg" x="0px" y="0px"
     viewBox="0 0 182 25" style="enable-background:new 0 0 182 25;" xml:space="preserve">
<style type="text/css">
	.st0{enable-background:new    ;}
</style>
<g class="st0">
	<path d="M6.3,18c-1.5,0-2.7-0.3-3.7-0.8c-1-0.5-1.9-1.2-2.6-2.1l2.7-2.1c0.4,0.7,0.9,1.2,1.5,1.5c0.6,0.4,1.3,0.5,2,0.5
		c0.8,0,1.4-0.2,1.8-0.6c0.4-0.4,0.6-0.9,0.6-1.5c0-0.3-0.1-0.6-0.3-0.8C8.3,12,8,11.8,7.7,11.6c-0.3-0.2-0.7-0.3-1.1-0.4
		c-0.4-0.1-0.8-0.3-1.2-0.4c-0.5-0.2-1.1-0.4-1.6-0.6c-0.5-0.2-1-0.5-1.5-0.8S1.5,8.7,1.3,8.2C1,7.7,0.9,7.1,0.9,6.4
		c0-0.6,0.1-1.2,0.4-1.8c0.3-0.5,0.6-1,1.1-1.4c0.5-0.4,1-0.7,1.7-1C4.7,2,5.4,1.9,6.2,1.9c0.6,0,1.2,0.1,1.7,0.2
		c0.5,0.1,1,0.3,1.4,0.5s0.8,0.5,1.2,0.7c0.4,0.3,0.7,0.6,1,0.9L9.1,6.2C8.4,5.1,7.5,4.6,6.2,4.6c-0.7,0-1.3,0.2-1.7,0.5
		C4.2,5.4,4,5.9,4,6.4C4,6.7,4,6.9,4.2,7.1c0.2,0.2,0.4,0.4,0.7,0.6C5.2,7.9,5.6,8,6,8.1c0.4,0.1,0.8,0.3,1.3,0.4
		c0.5,0.2,1.1,0.4,1.6,0.6s1,0.5,1.5,0.9c0.4,0.3,0.8,0.8,1.1,1.3c0.3,0.5,0.4,1.1,0.4,1.9c0,0.6-0.1,1.2-0.4,1.8
		c-0.2,0.6-0.6,1.1-1.1,1.5c-0.5,0.4-1,0.8-1.7,1.1C8,17.9,7.2,18,6.3,18z"/>
	<path d="M19.5,18c-0.8,0-1.5-0.1-2.3-0.4c-0.8-0.3-1.4-0.7-2-1.3c-0.6-0.6-1.1-1.2-1.5-2c-0.4-0.8-0.6-1.7-0.6-2.7
		c0-1,0.2-1.9,0.5-2.7s0.8-1.5,1.4-2c0.6-0.6,1.3-1,2-1.3s1.6-0.4,2.4-0.4c0.9,0,1.6,0.2,2.4,0.5s1.3,0.7,1.8,1.3V5.1h3V18h-3v-1.8
		c-0.5,0.6-1.1,1-1.8,1.4C21.1,17.9,20.3,18,19.5,18z M20,15.3c0.6,0,1.1-0.1,1.5-0.3s0.9-0.5,1.2-0.8c0.3-0.3,0.6-0.7,0.8-1.2
		c0.2-0.5,0.3-0.9,0.3-1.5c0-0.5-0.1-1-0.3-1.4c-0.2-0.5-0.5-0.9-0.8-1.2c-0.3-0.3-0.7-0.6-1.2-0.8c-0.5-0.2-1-0.3-1.5-0.3
		c-0.5,0-1.1,0.1-1.5,0.3c-0.5,0.2-0.9,0.5-1.2,0.8c-0.4,0.3-0.6,0.7-0.8,1.2c-0.2,0.5-0.3,0.9-0.3,1.5s0.1,1,0.3,1.5
		c0.2,0.5,0.5,0.9,0.8,1.2c0.4,0.3,0.8,0.6,1.2,0.8S19.4,15.3,20,15.3z"/>
	<path d="M28.4,5.1h2.9v1.7c0.4-0.5,0.9-0.9,1.6-1.2c0.6-0.3,1.3-0.5,2.1-0.5c1,0,1.9,0.2,2.6,0.6c0.7,0.4,1.2,0.9,1.6,1.6
		c0.4-0.7,1-1.2,1.7-1.6c0.7-0.4,1.6-0.6,2.5-0.6c1.7,0,3,0.5,3.9,1.4c0.9,0.9,1.3,2.2,1.3,3.9V18h-3v-7.3c0-0.9-0.2-1.6-0.7-2.2
		s-1.2-0.8-2.1-0.8c-0.8,0-1.5,0.3-2,0.8C40.3,9,40,9.9,40,11v7h-3v-7.4c0-0.9-0.2-1.6-0.7-2.1s-1.1-0.8-2-0.8
		c-0.8,0-1.5,0.3-2.1,0.8c-0.5,0.6-0.8,1.4-0.8,2.5v7h-3V5.1z"/>
	<path d="M55.2,18c-1.4,0-2.6-0.3-3.5-0.8s-1.7-1.3-2.2-2.3l2.8-1.2c0.3,0.6,0.7,1,1.3,1.3s1.1,0.5,1.8,0.5c0.7,0,1.3-0.1,1.6-0.4
		c0.4-0.3,0.5-0.6,0.5-1c0-0.2-0.1-0.4-0.3-0.5c-0.2-0.1-0.4-0.3-0.7-0.4c-0.3-0.1-0.6-0.2-1-0.3c-0.4-0.1-0.7-0.1-1.1-0.2
		c-0.6-0.1-1.1-0.2-1.6-0.4c-0.5-0.2-1-0.4-1.4-0.6c-0.4-0.3-0.8-0.6-1-1C50.2,10,50,9.5,50,8.9c0-0.5,0.1-1,0.4-1.4
		c0.2-0.5,0.6-0.9,1-1.2s1-0.6,1.6-0.8s1.3-0.3,2.1-0.3c1.3,0,2.4,0.2,3.2,0.7c0.9,0.5,1.5,1.1,2,2L57.8,9c-0.3-0.4-0.6-0.8-1.1-1
		s-1-0.4-1.6-0.4c-0.7,0-1.2,0.1-1.6,0.4S53,8.5,53,8.9c0,0.4,0.2,0.7,0.7,0.9c0.5,0.2,1.2,0.4,2.2,0.6c0.5,0.1,1.1,0.2,1.6,0.4
		c0.5,0.2,1,0.4,1.5,0.7c0.4,0.3,0.8,0.6,1.1,1s0.4,1,0.4,1.6c0,0.4-0.1,0.9-0.3,1.4c-0.2,0.5-0.5,0.9-1,1.3c-0.4,0.4-1,0.7-1.6,1
		C57,17.9,56.2,18,55.2,18z"/>
	<path d="M73.3,18h-2.9v-1.6c-0.4,0.5-0.9,0.9-1.5,1.2c-0.6,0.3-1.3,0.4-2.2,0.4c-1.5,0-2.7-0.5-3.6-1.4c-0.9-1-1.3-2.3-1.3-4V5.1h3
		v7.2c0,1,0.2,1.7,0.7,2.3c0.4,0.6,1.1,0.8,2.1,0.8c0.8,0,1.5-0.3,2-0.9c0.5-0.6,0.8-1.4,0.8-2.5V5.1h3V18z"/>
	<path d="M75.1,5.1h2.9v1.8c0.4-0.5,1-1,1.6-1.3c0.7-0.3,1.4-0.5,2.2-0.5c1.6,0,2.8,0.5,3.8,1.4c0.9,1,1.4,2.3,1.4,4V18h-3v-7.2
		c0-1-0.2-1.7-0.7-2.3s-1.2-0.8-2.2-0.8c-0.9,0-1.6,0.3-2.1,0.9c-0.6,0.6-0.9,1.4-0.9,2.5V18h-3V5.1z"/>
	<path d="M98.8,16c-0.5,0.6-1.1,1.1-1.8,1.5c-0.7,0.4-1.5,0.5-2.4,0.5c-0.8,0-1.5-0.1-2.3-0.4c-0.8-0.3-1.4-0.7-2-1.3
		c-0.6-0.6-1.1-1.2-1.5-2c-0.4-0.8-0.6-1.7-0.6-2.7c0-1,0.2-1.9,0.5-2.7s0.8-1.5,1.4-2c0.6-0.6,1.3-1,2-1.3c0.8-0.3,1.6-0.4,2.4-0.4
		c0.9,0,1.6,0.2,2.4,0.5c0.7,0.3,1.3,0.8,1.8,1.3V5.1h3v12.4c0,0.9-0.1,1.7-0.4,2.5c-0.3,0.8-0.7,1.5-1.3,2.1
		c-0.6,0.6-1.2,1-2.1,1.4c-0.8,0.3-1.8,0.5-2.9,0.5c-0.8,0-1.6-0.1-2.3-0.3s-1.3-0.4-1.8-0.8c-0.5-0.3-1-0.7-1.4-1.2
		s-0.8-0.9-1.1-1.5l2.6-1.6c0.5,0.9,1,1.5,1.6,1.9c0.6,0.4,1.4,0.6,2.4,0.6c0.6,0,1.1-0.1,1.5-0.3c0.5-0.2,0.8-0.5,1.2-0.8
		c0.3-0.3,0.6-0.7,0.7-1.2c0.2-0.5,0.3-0.9,0.3-1.4V16z M95.1,15.3c0.6,0,1.1-0.1,1.5-0.3s0.9-0.5,1.2-0.8c0.3-0.3,0.6-0.7,0.8-1.2
		c0.2-0.5,0.3-0.9,0.3-1.5c0-0.5-0.1-1-0.3-1.4c-0.2-0.5-0.5-0.9-0.8-1.2c-0.3-0.3-0.7-0.6-1.2-0.8c-0.5-0.2-1-0.3-1.5-0.3
		c-0.5,0-1.1,0.1-1.5,0.3c-0.5,0.2-0.9,0.5-1.2,0.8c-0.4,0.3-0.6,0.7-0.8,1.2c-0.2,0.5-0.3,0.9-0.3,1.5s0.1,1,0.3,1.5
		c0.2,0.5,0.5,0.9,0.8,1.2c0.4,0.3,0.8,0.6,1.2,0.8S94.6,15.3,95.1,15.3z"/>
	<path d="M109,1.9h4.4c1.3,0,2.6,0.2,3.6,0.6c1.1,0.4,1.9,1,2.7,1.7c0.7,0.7,1.3,1.6,1.7,2.5s0.6,2,0.6,3.2c0,1.1-0.2,2.2-0.6,3.2
		c-0.4,1-1,1.8-1.7,2.5c-0.7,0.7-1.6,1.3-2.7,1.7c-1,0.4-2.1,0.6-3.4,0.6H109V1.9z M112,4.7v10.5h1.2c0.9,0,1.7-0.1,2.4-0.4
		c0.7-0.3,1.3-0.6,1.8-1.1c0.5-0.5,0.9-1,1.1-1.7s0.4-1.3,0.4-2.1c0-0.8-0.1-1.5-0.4-2.1c-0.2-0.6-0.6-1.2-1.1-1.7
		c-0.5-0.5-1.1-0.8-1.8-1.1c-0.7-0.3-1.6-0.4-2.6-0.4H112z"/>
	<path d="M129.6,18c-1,0-1.9-0.2-2.8-0.5c-0.8-0.3-1.6-0.8-2.1-1.4c-0.6-0.6-1.1-1.3-1.4-2c-0.3-0.8-0.5-1.6-0.5-2.5
		c0-0.9,0.2-1.8,0.5-2.5c0.3-0.8,0.8-1.5,1.4-2.1c0.6-0.6,1.3-1,2.1-1.4c0.8-0.3,1.7-0.5,2.6-0.5c1,0,1.8,0.2,2.7,0.5
		s1.5,0.7,2.1,1.3c0.6,0.6,1,1.2,1.4,2c0.3,0.8,0.5,1.6,0.5,2.5v1.1h-10.5c0.2,0.9,0.7,1.6,1.3,2.2s1.6,0.8,2.6,0.8
		c0.8,0,1.6-0.2,2.2-0.6c0.6-0.4,1.1-1,1.4-1.7l2.4,1.4c-0.6,1-1.3,1.9-2.3,2.5C132.2,17.7,131,18,129.6,18z M129.4,7.7
		c-0.9,0-1.7,0.2-2.3,0.6c-0.7,0.4-1.1,0.9-1.4,1.6h7.3c-0.2-0.7-0.6-1.2-1.3-1.6S130.4,7.7,129.4,7.7z"/>
	<path d="M142.2,18c-1.4,0-2.6-0.3-3.5-0.8s-1.7-1.3-2.2-2.3l2.8-1.2c0.3,0.6,0.7,1,1.3,1.3s1.1,0.5,1.8,0.5c0.7,0,1.3-0.1,1.7-0.4
		c0.4-0.3,0.5-0.6,0.5-1c0-0.2-0.1-0.4-0.3-0.5c-0.2-0.1-0.4-0.3-0.7-0.4c-0.3-0.1-0.6-0.2-1-0.3c-0.4-0.1-0.7-0.1-1.1-0.2
		c-0.6-0.1-1.1-0.2-1.6-0.4c-0.5-0.2-1-0.4-1.4-0.6c-0.4-0.3-0.8-0.6-1-1s-0.4-1-0.4-1.6c0-0.5,0.1-1,0.4-1.4c0.2-0.5,0.6-0.9,1-1.2
		s1-0.6,1.6-0.8s1.3-0.3,2.1-0.3c1.3,0,2.4,0.2,3.2,0.7c0.9,0.5,1.5,1.1,2,2L144.8,9c-0.3-0.4-0.6-0.8-1.1-1s-1-0.4-1.6-0.4
		c-0.7,0-1.2,0.1-1.6,0.4c-0.3,0.3-0.5,0.6-0.5,0.9c0,0.4,0.2,0.7,0.7,0.9c0.5,0.2,1.2,0.4,2.2,0.6c0.5,0.1,1.1,0.2,1.6,0.4
		s1,0.4,1.5,0.7c0.4,0.3,0.8,0.6,1.1,1s0.4,1,0.4,1.6c0,0.4-0.1,0.9-0.3,1.4c-0.2,0.5-0.5,0.9-1,1.3c-0.4,0.4-1,0.7-1.6,1
		S143.2,18,142.2,18z"/>
	<path d="M148.4,2c0-0.6,0.2-1,0.5-1.4c0.3-0.3,0.8-0.5,1.4-0.5c0.6,0,1,0.2,1.4,0.5s0.5,0.8,0.5,1.4s-0.2,1-0.5,1.3
		s-0.8,0.5-1.4,0.5c-0.6,0-1.1-0.2-1.4-0.5S148.4,2.5,148.4,2z M148.8,5.1h3V18h-3V5.1z"/>
	<path d="M163.6,16c-0.5,0.6-1.1,1.1-1.8,1.5c-0.7,0.4-1.5,0.5-2.4,0.5c-0.8,0-1.5-0.1-2.3-0.4c-0.8-0.3-1.4-0.7-2-1.3
		c-0.6-0.6-1.1-1.2-1.5-2s-0.5-1.7-0.5-2.7c0-1,0.2-1.9,0.5-2.7s0.8-1.5,1.4-2c0.6-0.6,1.3-1,2-1.3c0.8-0.3,1.6-0.4,2.4-0.4
		c0.9,0,1.6,0.2,2.4,0.5c0.7,0.3,1.3,0.8,1.8,1.3V5.1h3v12.4c0,0.9-0.1,1.7-0.4,2.5c-0.3,0.8-0.7,1.5-1.3,2.1
		c-0.6,0.6-1.2,1-2.1,1.4c-0.8,0.3-1.8,0.5-2.9,0.5c-0.8,0-1.6-0.1-2.3-0.3s-1.3-0.4-1.8-0.8c-0.5-0.3-1-0.7-1.4-1.2
		s-0.8-0.9-1.1-1.5l2.6-1.6c0.5,0.9,1,1.5,1.6,1.9c0.6,0.4,1.4,0.6,2.4,0.6c0.6,0,1.1-0.1,1.5-0.3c0.5-0.2,0.8-0.5,1.2-0.8
		c0.3-0.3,0.6-0.7,0.7-1.2c0.2-0.5,0.3-0.9,0.3-1.4V16z M159.9,15.3c0.6,0,1.1-0.1,1.5-0.3c0.5-0.2,0.9-0.5,1.2-0.8
		c0.3-0.3,0.6-0.7,0.8-1.2c0.2-0.5,0.3-0.9,0.3-1.5c0-0.5-0.1-1-0.3-1.4c-0.2-0.5-0.5-0.9-0.8-1.2c-0.3-0.3-0.7-0.6-1.2-0.8
		c-0.5-0.2-1-0.3-1.5-0.3c-0.5,0-1.1,0.1-1.5,0.3c-0.5,0.2-0.9,0.5-1.2,0.8s-0.6,0.7-0.8,1.2c-0.2,0.5-0.3,0.9-0.3,1.5
		s0.1,1,0.3,1.5c0.2,0.5,0.5,0.9,0.8,1.2s0.8,0.6,1.2,0.8S159.4,15.3,159.9,15.3z"/>
	<path d="M168.4,5.1h2.9v1.8c0.4-0.5,1-1,1.6-1.3c0.7-0.3,1.4-0.5,2.2-0.5c1.6,0,2.8,0.5,3.8,1.4c0.9,1,1.4,2.3,1.4,4V18h-3v-7.2
		c0-1-0.2-1.7-0.7-2.3c-0.5-0.6-1.2-0.8-2.2-0.8c-0.9,0-1.6,0.3-2.1,0.9c-0.6,0.6-0.9,1.4-0.9,2.5V18h-3V5.1z"/>
</g>
</svg>
